<?xml version="1.0" encoding="UTF-8"?>
<svg xmlns="http://www.w3.org/2000/svg" xmlns:xlink="http://www.w3.org/1999/xlink" id="Layer_1" data-name="Layer 1" viewBox="0 0 169.68 38.54">
  <defs>
    <style>.cls-1{fill:#272728;}.cls-2{fill:url(#linear-gradient);}.cls-3{fill:url(#linear-gradient-2);}</style>
    <linearGradient id="linear-gradient" x1="21.11" y1="19.27" x2="40.63" y2="19.27" gradientUnits="userSpaceOnUse">
      <stop offset="0" stop-color="#1a88c9"></stop>
      <stop offset="0.01" stop-color="#1a89ca"></stop>
      <stop offset="0.38" stop-color="#22a1d9"></stop>
      <stop offset="0.72" stop-color="#27b0e2"></stop>
      <stop offset="1" stop-color="#29b5e5"></stop>
    </linearGradient>
    <linearGradient id="linear-gradient-2" x1="1.6" y1="19.27" x2="21.12" y2="19.27" gradientUnits="userSpaceOnUse">
      <stop offset="0" stop-color="#29b5e5"></stop>
      <stop offset="0.28" stop-color="#27b0e2"></stop>
      <stop offset="0.62" stop-color="#22a1d9"></stop>
      <stop offset="0.99" stop-color="#1a89ca"></stop>
      <stop offset="1" stop-color="#1a88c9"></stop>
    </linearGradient>
  </defs>
  <path class="cls-1" d="M63,10.37H67v17.8H62.79V17.62l-4.86,7.65H56.56l-4.89-7.65V28.17H47.42V10.37h4.07l5.75,9.26Z"></path>
  <path class="cls-1" d="M70.22,19.27c0-5.34,4-9.21,9.65-9.21s9.61,3.84,9.61,9.21-4,9.21-9.64,9.21S70.22,24.64,70.22,19.27Zm14.71,0c0-3.23-2.09-5.39-5.06-5.39S74.78,16,74.78,19.27s2.08,5.39,5.09,5.39S84.93,22.5,84.93,19.27Z"></path>
  <path class="cls-1" d="M103.61,28.17l-4.38-5.49H97v5.49H92.67V10.37h7.73c4.94,0,7.91,2.29,7.91,6.18a5.58,5.58,0,0,1-4.37,5.65l4.75,6ZM97,14v5.17h3.23c2.32,0,3.67-.71,3.67-2.55S102.59,14,100.27,14Z"></path>
  <path class="cls-1" d="M126.48,16.8c0,4.05-3,6.52-7.94,6.52h-3.08v4.85h-4.37V10.37h7.48C123.45,10.37,126.48,12.81,126.48,16.8Zm-8,2.88c2.29,0,3.66-.94,3.66-2.88s-1.37-2.8-3.66-2.8h-3v5.68Z"></path>
  <path class="cls-1" d="M141.24,10.37h4.4v17.8h-4.4v-7h-7.71v7h-4.4V10.37h4.4v7.07h7.71Z"></path>
  <path class="cls-1" d="M148.82,19.27c0-5.34,4.05-9.21,9.65-9.21s9.61,3.84,9.61,9.21-4,9.21-9.64,9.21S148.82,24.64,148.82,19.27Zm14.71,0c0-3.23-2.09-5.39-5.06-5.39s-5.09,2.16-5.09,5.39,2.08,5.39,5.09,5.39S163.53,22.5,163.53,19.27Z"></path>
  <path class="cls-2" d="M37.27,19.45l-3.36,15.8A16.16,16.16,0,1,1,40.63,3.64Z"></path>
  <path class="cls-3" d="M5,19.45l3.36,15.8A16.16,16.16,0,1,0,1.6,3.64Z"></path>
</svg>
